<svg width="24" height="24" viewBox="0 0 24 24" fill="none" xmlns="http://www.w3.org/2000/svg">
<path d="M10.4286 17.7778V7.22222H3.09524V17.7778H10.4286ZM10.4286 3C10.9843 3 11.5172 3.22242 11.9101 3.61833C12.3031 4.01424 12.5238 4.55121 12.5238 5.11111V19.8889C12.5238 20.4488 12.3031 20.9858 11.9101 21.3817C11.5172 21.7776 10.9843 22 10.4286 22H3.09524C2.53955 22 2.00661 21.7776 1.61368 21.3817C1.22075 20.9858 1 20.4488 1 19.8889V5.11111C1 4.55121 1.22075 4.01424 1.61368 3.61833C2.00661 3.22242 2.53955 3 3.09524 3H10.4286ZM16.1905 3H21.4286C21.8453 3 22.245 3.16682 22.5397 3.46375C22.8344 3.76068 23 4.16341 23 4.58333V7.75C23 8.16993 22.8344 8.57265 22.5397 8.86959C22.245 9.16652 21.8453 9.33333 21.4286 9.33333H17.7619L14.619 12.5V4.58333C14.619 4.16341 14.7846 3.76068 15.0793 3.46375C15.374 3.16682 15.7737 3 16.1905 3Z" fill="#3046D9"/>
</svg>
