<svg width="262" height="159" viewBox="0 0 262 159" fill="none" xmlns="http://www.w3.org/2000/svg">
<path d="M100.469 6.92578L66.7141 111.938L70.2859 113.063L104.031 8.07422L100.469 6.92578ZM141.531 6.92578L137.969 8.07422L171.719 113.063L175.281 111.938L141.531 6.92578ZM119.125 7.5L118.937 12.1875H123.062L122.875 7.5H119.125ZM118.797 15.9375L118.609 20.625H123.391L123.203 15.9375H118.797ZM118.445 24.375L118.141 31.875H123.859L123.555 24.375H118.445ZM118 35.625L117.531 46.875H124.469L124 35.625H118ZM117.344 51.5625L116.781 65.625H125.219L124.656 51.5625H117.344ZM116.57 71.25L115.891 88.125H126.109L125.43 71.25H116.57ZM115.633 94.6875L114.906 112.5H127.094L126.367 94.6875H115.633Z" fill="#008000"/>
<path d="M0.0454545 134L3.90909 110.727H13.9545C15.6818 110.727 17.1364 111.068 18.3182 111.75C19.5 112.432 20.3485 113.39 20.8636 114.625C21.3788 115.86 21.5 117.303 21.2273 118.955C20.9545 120.636 20.3485 122.087 19.4091 123.307C18.4773 124.519 17.2879 125.455 15.8409 126.114C14.4015 126.765 12.7879 127.091 11 127.091H5L5.81818 122.182H10.5455C11.303 122.182 11.9697 122.053 12.5455 121.795C13.1212 121.53 13.5871 121.159 13.9432 120.682C14.2992 120.197 14.5303 119.621 14.6364 118.955C14.7424 118.288 14.6932 117.72 14.4886 117.25C14.2917 116.773 13.9508 116.409 13.4659 116.159C12.9886 115.902 12.3788 115.773 11.6364 115.773H9.40909L6.36364 134H0.0454545ZM33.7273 126.364L35.3636 116.545H41.6364L38.7273 134H32.7727L33.3182 130.682H33.1364C32.5985 131.795 31.7955 132.667 30.7273 133.295C29.6667 133.917 28.4848 134.227 27.1818 134.227C25.9621 134.227 24.9432 133.947 24.125 133.386C23.3068 132.826 22.7273 132.053 22.3864 131.068C22.0455 130.083 21.9773 128.955 22.1818 127.682L24.0455 116.545H30.3182L28.6818 126.364C28.553 127.227 28.6629 127.905 29.0114 128.398C29.3674 128.89 29.9394 129.136 30.7273 129.136C31.25 129.136 31.7197 129.027 32.1364 128.807C32.5606 128.58 32.9091 128.261 33.1818 127.852C33.4621 127.436 33.6439 126.939 33.7273 126.364ZM41.9176 134L44.8267 116.545H50.9176L50.3722 119.864H50.554C51.0767 118.636 51.732 117.739 52.5199 117.17C53.3078 116.602 54.1676 116.318 55.0994 116.318C55.3722 116.318 55.6335 116.341 55.8835 116.386C56.1411 116.424 56.3949 116.477 56.6449 116.545L55.7358 121.909C55.4403 121.795 55.0729 121.716 54.6335 121.67C54.1941 121.617 53.804 121.591 53.4631 121.591C52.857 121.591 52.2888 121.731 51.7585 122.011C51.2358 122.284 50.7888 122.67 50.4176 123.17C50.054 123.663 49.8116 124.242 49.6903 124.909L48.1903 134H41.9176ZM54.7472 140.545L58.7699 116.545H64.9972L64.4972 119.591H64.6335C64.9517 119 65.3684 118.458 65.8835 117.966C66.4063 117.466 67.0199 117.068 67.7244 116.773C68.4366 116.47 69.2244 116.318 70.0881 116.318C71.2396 116.318 72.2813 116.625 73.2131 117.239C74.1449 117.852 74.8305 118.818 75.2699 120.136C75.7093 121.455 75.7547 123.167 75.4062 125.273C75.0729 127.288 74.4782 128.958 73.6222 130.284C72.7737 131.61 71.7737 132.598 70.6222 133.25C69.4782 133.902 68.285 134.227 67.0426 134.227C66.2244 134.227 65.5161 134.095 64.9176 133.83C64.3191 133.557 63.8381 133.189 63.4744 132.727C63.1108 132.258 62.8608 131.727 62.7244 131.136H62.5881L61.0426 140.545H54.7472ZM63.4517 125.273C63.3153 126.121 63.304 126.856 63.4176 127.477C63.5388 128.091 63.7775 128.568 64.1335 128.909C64.4972 129.242 64.9669 129.409 65.5426 129.409C66.1184 129.409 66.6335 129.246 67.0881 128.92C67.5426 128.587 67.929 128.114 68.2472 127.5C68.5653 126.879 68.8002 126.136 68.9517 125.273C69.0881 124.409 69.0994 123.67 68.9858 123.057C68.8722 122.436 68.6411 121.962 68.2926 121.636C67.9441 121.303 67.482 121.136 66.9062 121.136C66.3305 121.136 65.804 121.303 65.3267 121.636C64.857 121.962 64.4593 122.436 64.1335 123.057C63.8153 123.67 63.5881 124.409 63.4517 125.273ZM84.9375 134.318C83.0436 134.318 81.483 133.943 80.2557 133.193C79.036 132.436 78.1799 131.383 77.6875 130.034C77.1951 128.678 77.0966 127.106 77.392 125.318C77.6875 123.53 78.3049 121.962 79.2443 120.614C80.1837 119.258 81.392 118.205 82.8693 117.455C84.3466 116.697 86.036 116.318 87.9375 116.318C89.8239 116.318 91.3769 116.697 92.5966 117.455C93.8239 118.205 94.6837 119.258 95.1761 120.614C95.6761 121.962 95.7784 123.53 95.483 125.318C95.1875 127.106 94.5663 128.678 93.6193 130.034C92.6723 131.383 91.4602 132.436 89.983 133.193C88.5133 133.943 86.8314 134.318 84.9375 134.318ZM85.7102 129.682C86.2557 129.682 86.7519 129.504 87.1989 129.148C87.6534 128.792 88.0398 128.284 88.358 127.625C88.6837 126.966 88.9223 126.182 89.0739 125.273C89.2254 124.356 89.2481 123.572 89.142 122.92C89.036 122.261 88.8163 121.754 88.483 121.398C88.1496 121.042 87.7102 120.864 87.1648 120.864C86.6193 120.864 86.1193 121.042 85.6648 121.398C85.2102 121.754 84.8239 122.261 84.5057 122.92C84.1875 123.572 83.9527 124.356 83.8011 125.273C83.6496 126.182 83.6231 126.966 83.7216 127.625C83.8277 128.284 84.0473 128.792 84.3807 129.148C84.7216 129.504 85.1648 129.682 85.7102 129.682ZM114.438 122.227H108.801C108.831 121.864 108.767 121.553 108.608 121.295C108.449 121.038 108.225 120.841 107.938 120.705C107.657 120.568 107.339 120.5 106.983 120.5C106.362 120.5 105.797 120.64 105.29 120.92C104.782 121.193 104.498 121.553 104.438 122C104.4 122.174 104.456 122.337 104.608 122.489C104.759 122.64 105.157 122.78 105.801 122.909L109.256 123.545C110.983 123.864 112.241 124.443 113.028 125.284C113.824 126.117 114.112 127.22 113.892 128.591C113.688 129.78 113.165 130.803 112.324 131.659C111.483 132.515 110.415 133.174 109.119 133.636C107.831 134.091 106.407 134.318 104.847 134.318C102.097 134.318 100.036 133.769 98.6648 132.67C97.3011 131.572 96.6799 130.136 96.8011 128.364H102.892C102.907 128.932 103.097 129.36 103.46 129.648C103.831 129.928 104.324 130.076 104.938 130.091C105.604 130.114 106.188 129.981 106.688 129.693C107.188 129.398 107.468 129.03 107.528 128.591C107.551 128.341 107.441 128.152 107.199 128.023C106.964 127.894 106.513 127.765 105.847 127.636L102.847 127.091C101.119 126.78 99.8617 126.159 99.0739 125.227C98.286 124.288 98.0133 123.091 98.2557 121.636C98.4527 120.477 98.9223 119.504 99.6648 118.716C100.415 117.928 101.4 117.333 102.619 116.932C103.839 116.523 105.248 116.318 106.847 116.318C109.46 116.318 111.438 116.845 112.778 117.898C114.127 118.943 114.68 120.386 114.438 122.227ZM123.705 134.318C121.841 134.318 120.295 133.962 119.068 133.25C117.841 132.53 116.977 131.5 116.477 130.159C115.977 128.811 115.886 127.197 116.205 125.318C116.508 123.515 117.133 121.939 118.08 120.591C119.034 119.242 120.235 118.193 121.682 117.443C123.136 116.693 124.765 116.318 126.568 116.318C127.886 116.318 129.042 116.523 130.034 116.932C131.034 117.341 131.848 117.936 132.477 118.716C133.106 119.496 133.53 120.439 133.75 121.545C133.977 122.644 133.977 123.886 133.75 125.273L133.523 126.727H117.932L118.477 123.273H128.295C128.371 122.773 128.322 122.333 128.148 121.955C127.981 121.568 127.712 121.269 127.341 121.057C126.977 120.837 126.538 120.727 126.023 120.727C125.508 120.727 125.023 120.837 124.568 121.057C124.121 121.277 123.739 121.583 123.42 121.977C123.11 122.371 122.902 122.833 122.795 123.364L122.114 127C122.023 127.561 122.057 128.061 122.216 128.5C122.375 128.939 122.652 129.284 123.045 129.534C123.439 129.784 123.947 129.909 124.568 129.909C124.992 129.909 125.394 129.852 125.773 129.739C126.159 129.617 126.5 129.443 126.795 129.216C127.098 128.981 127.341 128.697 127.523 128.364H133.25C132.841 129.576 132.193 130.629 131.307 131.523C130.428 132.409 129.345 133.098 128.057 133.591C126.777 134.076 125.326 134.318 123.705 134.318ZM148.241 116.545L147.469 121.091H135.787L136.56 116.545H148.241ZM135.855 134L138.855 116.045C139.09 114.606 139.541 113.413 140.207 112.466C140.882 111.519 141.726 110.811 142.741 110.341C143.764 109.871 144.908 109.636 146.173 109.636C146.976 109.636 147.745 109.697 148.48 109.818C149.215 109.939 149.749 110.045 150.082 110.136L148.446 114.636C148.226 114.568 147.973 114.515 147.685 114.477C147.397 114.432 147.135 114.409 146.901 114.409C146.317 114.409 145.901 114.534 145.651 114.784C145.408 115.034 145.249 115.364 145.173 115.773L142.128 134H135.855ZM160.321 126.364L161.957 116.545H168.23L165.321 134H159.366L159.912 130.682H159.73C159.192 131.795 158.389 132.667 157.321 133.295C156.26 133.917 155.079 134.227 153.776 134.227C152.556 134.227 151.537 133.947 150.719 133.386C149.901 132.826 149.321 132.053 148.98 131.068C148.639 130.083 148.571 128.955 148.776 127.682L150.639 116.545H156.912L155.276 126.364C155.147 127.227 155.257 127.905 155.605 128.398C155.961 128.89 156.533 129.136 157.321 129.136C157.844 129.136 158.313 129.027 158.73 128.807C159.154 128.58 159.503 128.261 159.776 127.852C160.056 127.436 160.238 126.939 160.321 126.364ZM178.648 110.727L174.784 134H168.511L172.375 110.727H178.648ZM184.264 134L188.128 110.727H198.173C199.901 110.727 201.355 111.068 202.537 111.75C203.719 112.432 204.567 113.39 205.082 114.625C205.598 115.86 205.719 117.303 205.446 118.955C205.173 120.636 204.567 122.087 203.628 123.307C202.696 124.519 201.507 125.455 200.06 126.114C198.62 126.765 197.007 127.091 195.219 127.091H189.219L190.037 122.182H194.764C195.522 122.182 196.188 122.053 196.764 121.795C197.34 121.53 197.806 121.159 198.162 120.682C198.518 120.197 198.749 119.621 198.855 118.955C198.961 118.288 198.912 117.72 198.707 117.25C198.51 116.773 198.17 116.409 197.685 116.159C197.207 115.902 196.598 115.773 195.855 115.773H193.628L190.582 134H184.264ZM209.392 134.273C208.286 134.273 207.335 134.091 206.54 133.727C205.752 133.356 205.176 132.795 204.812 132.045C204.456 131.288 204.377 130.333 204.574 129.182C204.733 128.227 205.032 127.413 205.472 126.739C205.911 126.064 206.456 125.511 207.108 125.08C207.759 124.648 208.491 124.318 209.301 124.091C210.119 123.856 210.983 123.705 211.892 123.636C212.877 123.561 213.676 123.466 214.29 123.352C214.903 123.239 215.362 123.083 215.665 122.886C215.968 122.689 216.15 122.424 216.21 122.091V122.045C216.278 121.591 216.157 121.242 215.847 121C215.544 120.758 215.119 120.636 214.574 120.636C213.983 120.636 213.472 120.765 213.04 121.023C212.616 121.28 212.324 121.682 212.165 122.227H206.392C206.634 121.167 207.131 120.189 207.881 119.295C208.638 118.394 209.642 117.674 210.892 117.136C212.15 116.591 213.65 116.318 215.392 116.318C216.634 116.318 217.725 116.466 218.665 116.761C219.604 117.049 220.381 117.455 220.994 117.977C221.616 118.492 222.051 119.098 222.301 119.795C222.559 120.485 222.619 121.235 222.483 122.045L220.483 134H214.619L215.028 131.545H214.892C214.438 132.197 213.926 132.723 213.358 133.125C212.797 133.527 212.184 133.818 211.517 134C210.858 134.182 210.15 134.273 209.392 134.273ZM212.119 130.318C212.589 130.318 213.051 130.22 213.506 130.023C213.96 129.826 214.35 129.542 214.676 129.17C215.002 128.799 215.21 128.348 215.301 127.818L215.528 126.364C215.362 126.432 215.176 126.496 214.972 126.557C214.775 126.61 214.566 126.663 214.347 126.716C214.134 126.769 213.907 126.818 213.665 126.864C213.43 126.909 213.188 126.955 212.938 127C212.438 127.076 212.017 127.201 211.676 127.375C211.335 127.542 211.07 127.75 210.881 128C210.691 128.242 210.574 128.515 210.528 128.818C210.46 129.295 210.57 129.667 210.858 129.932C211.153 130.189 211.574 130.318 212.119 130.318ZM236.798 116.545L236.026 121.091H224.526L225.298 116.545H236.798ZM228.207 112.364H234.48L231.821 128.386C231.783 128.629 231.791 128.833 231.844 129C231.897 129.159 232.003 129.28 232.162 129.364C232.329 129.439 232.548 129.477 232.821 129.477C233.003 129.477 233.226 129.455 233.491 129.409C233.757 129.356 233.957 129.318 234.094 129.295L234.276 133.705C233.957 133.795 233.529 133.898 232.991 134.011C232.461 134.133 231.844 134.212 231.139 134.25C229.67 134.318 228.473 134.163 227.548 133.784C226.632 133.405 225.995 132.814 225.639 132.011C225.291 131.201 225.23 130.189 225.457 128.977L228.207 112.364ZM244.778 124.182L243.142 134H236.869L240.733 110.727H246.778L245.278 119.864H245.46C246.028 118.75 246.824 117.883 247.847 117.261C248.869 116.633 250.028 116.318 251.324 116.318C252.551 116.318 253.574 116.598 254.392 117.159C255.21 117.72 255.79 118.492 256.131 119.477C256.472 120.462 256.536 121.591 256.324 122.864L254.46 134H248.188L249.824 124.182C249.96 123.318 249.85 122.64 249.494 122.148C249.146 121.655 248.574 121.409 247.778 121.409C247.263 121.409 246.794 121.523 246.369 121.75C245.953 121.97 245.604 122.288 245.324 122.705C245.051 123.114 244.869 123.606 244.778 124.182Z" fill="black"/>
</svg>
